<svg width="1056" height="916" viewBox="0 0 1056 916" fill="none" xmlns="http://www.w3.org/2000/svg">
<rect x="92.3432" y="13.4758" width="918.313" height="15.0282" rx="7.5" fill="#AEAEB2" stroke="#85858B"/>
<rect x="96.8935" y="17.4261" width="909.211" height="7.12807" rx="3.5" fill="#85858B" stroke="#85858B"/>
<g filter="url(#filter0_dd_0_459)">
<mask id="path-3-inside-1_0_459" fill="white">
<path fill-rule="evenodd" clip-rule="evenodd" d="M988.173 22.9899C988.173 21.8853 987.278 20.9899 986.173 20.9899H116.826C115.722 20.9899 114.826 21.8853 114.826 22.9899L114.826 838.412C114.826 839.006 115.09 839.569 115.546 839.949L140.838 861.026C141.579 861.644 142.657 861.644 143.399 861.026L168.13 840.416C168.871 839.798 169.949 839.798 170.691 840.416L195.422 861.026C196.164 861.644 197.241 861.644 197.983 861.026L222.714 840.416C223.456 839.798 224.533 839.798 225.275 840.416L250.006 861.026C250.748 861.644 251.825 861.644 252.567 861.026L277.298 840.416C278.04 839.798 279.117 839.798 279.859 840.416L304.59 861.026C305.332 861.644 306.409 861.644 307.151 861.026L331.882 840.416C332.624 839.798 333.702 839.798 334.443 840.416L359.175 861.026C359.916 861.644 360.994 861.644 361.735 861.026L386.467 840.416C387.208 839.798 388.286 839.798 389.027 840.416L413.759 861.026C414.5 861.644 415.578 861.644 416.32 861.026L441.051 840.416C441.793 839.798 442.87 839.798 443.612 840.416L468.343 861.026C469.085 861.644 470.162 861.644 470.904 861.026L495.635 840.416C496.377 839.798 497.454 839.798 498.196 840.416L522.927 861.026C523.669 861.644 524.746 861.644 525.488 861.026L550.219 840.416C550.961 839.798 552.038 839.798 552.78 840.416L577.511 861.026C578.253 861.644 579.331 861.644 580.072 861.026L604.804 840.416C605.545 839.798 606.623 839.798 607.364 840.416L632.096 861.026C632.837 861.644 633.915 861.644 634.656 861.026L659.388 840.416C660.13 839.798 661.207 839.798 661.949 840.416L686.68 861.026C687.422 861.644 688.499 861.644 689.241 861.026L713.972 840.416C714.714 839.798 715.791 839.798 716.533 840.416L741.264 861.026C742.006 861.644 743.083 861.644 743.825 861.026L768.556 840.416C769.298 839.798 770.375 839.798 771.117 840.416L795.848 861.026C796.59 861.644 797.667 861.644 798.409 861.026L823.14 840.416C823.882 839.798 824.96 839.798 825.701 840.416L850.433 861.026C851.174 861.644 852.252 861.644 852.993 861.026L877.725 840.416C878.466 839.798 879.544 839.798 880.286 840.416L905.017 861.026C905.759 861.644 906.836 861.644 907.578 861.026L932.309 840.416C933.051 839.798 934.128 839.798 934.87 840.416L959.601 861.026C960.343 861.644 961.42 861.644 962.162 861.026L987.454 839.949C987.91 839.569 988.174 839.006 988.174 838.412L988.173 22.9899Z"/>
</mask>
<path fill-rule="evenodd" clip-rule="evenodd" d="M988.173 22.9899C988.173 21.8853 987.278 20.9899 986.173 20.9899H116.826C115.722 20.9899 114.826 21.8853 114.826 22.9899L114.826 838.412C114.826 839.006 115.09 839.569 115.546 839.949L140.838 861.026C141.579 861.644 142.657 861.644 143.399 861.026L168.13 840.416C168.871 839.798 169.949 839.798 170.691 840.416L195.422 861.026C196.164 861.644 197.241 861.644 197.983 861.026L222.714 840.416C223.456 839.798 224.533 839.798 225.275 840.416L250.006 861.026C250.748 861.644 251.825 861.644 252.567 861.026L277.298 840.416C278.04 839.798 279.117 839.798 279.859 840.416L304.59 861.026C305.332 861.644 306.409 861.644 307.151 861.026L331.882 840.416C332.624 839.798 333.702 839.798 334.443 840.416L359.175 861.026C359.916 861.644 360.994 861.644 361.735 861.026L386.467 840.416C387.208 839.798 388.286 839.798 389.027 840.416L413.759 861.026C414.5 861.644 415.578 861.644 416.32 861.026L441.051 840.416C441.793 839.798 442.87 839.798 443.612 840.416L468.343 861.026C469.085 861.644 470.162 861.644 470.904 861.026L495.635 840.416C496.377 839.798 497.454 839.798 498.196 840.416L522.927 861.026C523.669 861.644 524.746 861.644 525.488 861.026L550.219 840.416C550.961 839.798 552.038 839.798 552.78 840.416L577.511 861.026C578.253 861.644 579.331 861.644 580.072 861.026L604.804 840.416C605.545 839.798 606.623 839.798 607.364 840.416L632.096 861.026C632.837 861.644 633.915 861.644 634.656 861.026L659.388 840.416C660.13 839.798 661.207 839.798 661.949 840.416L686.68 861.026C687.422 861.644 688.499 861.644 689.241 861.026L713.972 840.416C714.714 839.798 715.791 839.798 716.533 840.416L741.264 861.026C742.006 861.644 743.083 861.644 743.825 861.026L768.556 840.416C769.298 839.798 770.375 839.798 771.117 840.416L795.848 861.026C796.59 861.644 797.667 861.644 798.409 861.026L823.14 840.416C823.882 839.798 824.96 839.798 825.701 840.416L850.433 861.026C851.174 861.644 852.252 861.644 852.993 861.026L877.725 840.416C878.466 839.798 879.544 839.798 880.286 840.416L905.017 861.026C905.759 861.644 906.836 861.644 907.578 861.026L932.309 840.416C933.051 839.798 934.128 839.798 934.87 840.416L959.601 861.026C960.343 861.644 961.42 861.644 962.162 861.026L987.454 839.949C987.91 839.569 988.174 839.006 988.174 838.412L988.173 22.9899Z" fill="url(#paint0_linear_0_459)"/>
<path d="M987.454 839.949L986.814 839.18L987.454 839.949ZM988.174 838.412L989.174 838.412L988.174 838.412ZM959.601 861.026L960.241 860.258L959.601 861.026ZM962.162 861.026L961.522 860.258L962.162 861.026ZM932.309 840.416L932.949 841.184L932.309 840.416ZM934.87 840.416L934.23 841.184L934.87 840.416ZM905.017 861.026L905.657 860.258L905.017 861.026ZM907.578 861.026L906.937 860.258L907.578 861.026ZM877.725 840.416L878.365 841.184L877.725 840.416ZM880.286 840.416L879.645 841.184L880.286 840.416ZM850.433 861.026L851.073 860.258L850.433 861.026ZM852.993 861.026L852.353 860.258L852.993 861.026ZM823.14 840.416L823.781 841.184L823.14 840.416ZM825.701 840.416L825.061 841.184L825.701 840.416ZM795.848 861.026L796.489 860.258L795.848 861.026ZM798.409 861.026L797.769 860.258L798.409 861.026ZM768.556 840.416L769.196 841.184L768.556 840.416ZM771.117 840.416L770.477 841.184L771.117 840.416ZM741.264 861.026L741.904 860.258L741.264 861.026ZM743.825 861.026L743.185 860.258L743.825 861.026ZM713.972 840.416L714.612 841.184L713.972 840.416ZM716.533 840.416L715.893 841.184L716.533 840.416ZM686.68 861.026L687.32 860.258L686.68 861.026ZM689.241 861.026L688.601 860.258L689.241 861.026ZM659.388 840.416L660.028 841.184L659.388 840.416ZM661.949 840.416L661.308 841.184L661.949 840.416ZM632.096 861.026L632.736 860.258L632.096 861.026ZM634.656 861.026L634.016 860.258L634.656 861.026ZM604.804 840.416L604.163 839.648L604.804 840.416ZM607.364 840.416L608.005 839.648L607.364 840.416ZM577.511 861.026L576.871 861.795L577.511 861.026ZM580.072 861.026L580.712 861.795L580.072 861.026ZM550.219 840.416L549.579 839.648L550.219 840.416ZM552.78 840.416L553.42 839.648L552.78 840.416ZM522.927 861.026L522.287 861.795L522.927 861.026ZM525.488 861.026L526.128 861.795L525.488 861.026ZM495.635 840.416L494.995 839.648L495.635 840.416ZM498.196 840.416L498.836 839.648L498.196 840.416ZM468.343 861.026L467.703 861.795L468.343 861.026ZM470.904 861.026L471.544 861.795L470.904 861.026ZM441.051 840.416L440.411 839.648L441.051 840.416ZM443.612 840.416L444.252 839.648L443.612 840.416ZM413.759 861.026L413.119 861.795L413.759 861.026ZM416.32 861.026L416.96 861.795L416.32 861.026ZM386.467 840.416L387.107 841.184L386.467 840.416ZM389.027 840.416L388.387 841.184L389.027 840.416ZM359.175 861.026L358.534 861.795L359.175 861.026ZM361.735 861.026L361.095 860.258L361.735 861.026ZM331.882 840.416L332.523 841.184L331.882 840.416ZM334.443 840.416L333.803 841.184L334.443 840.416ZM304.59 861.026L305.231 860.258L304.59 861.026ZM307.151 861.026L306.511 860.258L307.151 861.026ZM277.298 840.416L277.938 841.184L277.298 840.416ZM279.859 840.416L279.219 841.184L279.859 840.416ZM250.006 861.026L250.646 860.258L250.006 861.026ZM252.567 861.026L251.927 860.258L252.567 861.026ZM222.714 840.416L223.354 841.184L222.714 840.416ZM225.275 840.416L224.635 841.184L225.275 840.416ZM195.422 861.026L194.782 861.795L195.422 861.026ZM197.983 861.026L198.623 861.795L197.983 861.026ZM168.13 840.416L167.49 839.648L168.13 840.416ZM170.691 840.416L171.331 839.648L170.691 840.416ZM140.838 861.026L141.478 860.258L140.838 861.026ZM143.399 861.026L142.758 860.258L143.399 861.026ZM115.546 839.949L114.906 840.717L115.546 839.949ZM988.173 22.9899L989.173 22.9899L988.173 22.9899ZM116.826 21.9899H986.173V19.9899H116.826V21.9899ZM115.826 838.412L115.826 22.9899L113.826 22.9899L113.826 838.412L115.826 838.412ZM141.478 860.258L116.186 839.181L114.906 840.717L140.198 861.794L141.478 860.258ZM167.49 839.648L142.758 860.258L144.039 861.794L168.77 841.184L167.49 839.648ZM196.062 860.258L171.331 839.648L170.05 841.184L194.782 861.795L196.062 860.258ZM222.074 839.648L197.342 860.258L198.623 861.795L223.354 841.184L222.074 839.648ZM250.646 860.258L225.915 839.648L224.635 841.184L249.366 861.795L250.646 860.258ZM276.658 839.648L251.927 860.258L253.207 861.795L277.938 841.184L276.658 839.648ZM305.231 860.258L280.499 839.648L279.219 841.184L303.95 861.795L305.231 860.258ZM331.242 839.648L306.511 860.258L307.791 861.795L332.523 841.184L331.242 839.648ZM359.815 860.258L335.083 839.648L333.803 841.184L358.534 861.795L359.815 860.258ZM385.826 839.648L361.095 860.258L362.376 861.795L387.107 841.184L385.826 839.648ZM414.399 860.258L389.668 839.648L388.387 841.184L413.119 861.795L414.399 860.258ZM440.411 839.648L415.679 860.258L416.96 861.795L441.691 841.184L440.411 839.648ZM468.983 860.258L444.252 839.648L442.971 841.184L467.703 861.795L468.983 860.258ZM494.995 839.648L470.264 860.258L471.544 861.795L496.275 841.184L494.995 839.648ZM523.567 860.258L498.836 839.648L497.556 841.184L522.287 861.795L523.567 860.258ZM549.579 839.648L524.848 860.258L526.128 861.795L550.86 841.184L549.579 839.648ZM578.152 860.258L553.42 839.648L552.14 841.184L576.871 861.795L578.152 860.258ZM604.163 839.648L579.432 860.258L580.712 861.795L605.444 841.184L604.163 839.648ZM632.736 860.258L608.005 839.648L606.724 841.184L631.455 861.795L632.736 860.258ZM658.748 839.648L634.016 860.258L635.297 861.795L660.028 841.184L658.748 839.648ZM687.32 860.258L662.589 839.648L661.308 841.184L686.04 861.795L687.32 860.258ZM713.332 839.648L688.601 860.258L689.881 861.795L714.612 841.184L713.332 839.648ZM741.904 860.258L717.173 839.648L715.893 841.184L740.624 861.795L741.904 860.258ZM767.916 839.648L743.185 860.258L744.465 861.795L769.196 841.184L767.916 839.648ZM796.489 860.258L771.757 839.648L770.477 841.184L795.208 861.795L796.489 860.258ZM822.5 839.648L797.769 860.258L799.049 861.795L823.781 841.184L822.5 839.648ZM851.073 860.258L826.341 839.648L825.061 841.184L849.792 861.795L851.073 860.258ZM877.085 839.648L852.353 860.258L853.634 861.795L878.365 841.184L877.085 839.648ZM905.657 860.258L880.926 839.648L879.645 841.184L904.377 861.795L905.657 860.258ZM931.669 839.648L906.937 860.258L908.218 861.795L932.949 841.184L931.669 839.648ZM960.241 860.258L935.51 839.648L934.23 841.184L958.961 861.795L960.241 860.258ZM962.802 861.795L988.094 840.717L986.814 839.18L961.522 860.258L962.802 861.795ZM987.173 22.9899L987.174 838.412L989.174 838.412L989.173 22.9899L987.173 22.9899ZM988.094 840.717C988.778 840.147 989.174 839.303 989.174 838.412L987.174 838.412C987.174 838.709 987.042 838.99 986.814 839.18L988.094 840.717ZM958.961 861.795C960.073 862.722 961.69 862.722 962.802 861.795L961.522 860.258C961.151 860.567 960.612 860.567 960.241 860.258L958.961 861.795ZM932.949 841.184C933.32 840.875 933.859 840.875 934.23 841.184L935.51 839.648C934.397 838.721 932.781 838.721 931.669 839.648L932.949 841.184ZM904.377 861.795C905.489 862.722 907.105 862.722 908.218 861.795L906.937 860.258C906.567 860.567 906.028 860.567 905.657 860.258L904.377 861.795ZM878.365 841.184C878.736 840.875 879.274 840.875 879.645 841.184L880.926 839.648C879.813 838.721 878.197 838.721 877.085 839.648L878.365 841.184ZM849.792 861.795C850.905 862.722 852.521 862.722 853.634 861.795L852.353 860.258C851.982 860.567 851.444 860.567 851.073 860.258L849.792 861.795ZM823.781 841.184C824.152 840.875 824.69 840.875 825.061 841.184L826.341 839.648C825.229 838.721 823.613 838.721 822.5 839.648L823.781 841.184ZM795.208 861.795C796.321 862.722 797.937 862.722 799.049 861.795L797.769 860.258C797.398 860.567 796.859 860.567 796.489 860.258L795.208 861.795ZM769.196 841.184C769.567 840.875 770.106 840.875 770.477 841.184L771.757 839.648C770.645 838.721 769.029 838.721 767.916 839.648L769.196 841.184ZM740.624 861.795C741.737 862.722 743.353 862.722 744.465 861.795L743.185 860.258C742.814 860.567 742.275 860.567 741.904 860.258L740.624 861.795ZM714.612 841.184C714.983 840.875 715.522 840.875 715.893 841.184L717.173 839.648C716.06 838.721 714.444 838.721 713.332 839.648L714.612 841.184ZM686.04 861.795C687.152 862.722 688.768 862.722 689.881 861.795L688.601 860.258C688.23 860.567 687.691 860.567 687.32 860.258L686.04 861.795ZM660.028 841.184C660.399 840.875 660.938 840.875 661.308 841.184L662.589 839.648C661.476 838.721 659.86 838.721 658.748 839.648L660.028 841.184ZM631.455 861.795C632.568 862.722 634.184 862.722 635.297 861.795L634.016 860.258C633.645 860.567 633.107 860.567 632.736 860.258L631.455 861.795ZM605.444 841.184C605.815 840.875 606.353 840.875 606.724 841.184L608.005 839.648C606.892 838.721 605.276 838.721 604.163 839.648L605.444 841.184ZM576.871 861.795C577.984 862.722 579.6 862.722 580.712 861.795L579.432 860.258C579.061 860.567 578.523 860.567 578.152 860.258L576.871 861.795ZM550.86 841.184C551.23 840.875 551.769 840.875 552.14 841.184L553.42 839.648C552.308 838.721 550.692 838.721 549.579 839.648L550.86 841.184ZM522.287 861.795C523.4 862.722 525.016 862.722 526.128 861.795L524.848 860.258C524.477 860.567 523.938 860.567 523.567 860.258L522.287 861.795ZM496.275 841.184C496.646 840.875 497.185 840.875 497.556 841.184L498.836 839.648C497.724 838.721 496.107 838.721 494.995 839.648L496.275 841.184ZM467.703 861.795C468.815 862.722 470.431 862.722 471.544 861.795L470.264 860.258C469.893 860.567 469.354 860.567 468.983 860.258L467.703 861.795ZM441.691 841.184C442.062 840.875 442.601 840.875 442.971 841.184L444.252 839.648C443.139 838.721 441.523 838.721 440.411 839.648L441.691 841.184ZM413.119 861.795C414.231 862.722 415.847 862.722 416.96 861.795L415.679 860.258C415.309 860.567 414.77 860.567 414.399 860.258L413.119 861.795ZM387.107 841.184C387.478 840.875 388.016 840.875 388.387 841.184L389.668 839.648C388.555 838.721 386.939 838.721 385.826 839.648L387.107 841.184ZM358.534 861.795C359.647 862.722 361.263 862.722 362.376 861.795L361.095 860.258C360.724 860.567 360.186 860.567 359.815 860.258L358.534 861.795ZM332.523 841.184C332.894 840.875 333.432 840.875 333.803 841.184L335.083 839.648C333.971 838.721 332.355 838.721 331.242 839.648L332.523 841.184ZM303.95 861.795C305.063 862.722 306.679 862.722 307.791 861.795L306.511 860.258C306.14 860.567 305.601 860.567 305.231 860.258L303.95 861.795ZM277.938 841.184C278.309 840.875 278.848 840.875 279.219 841.184L280.499 839.648C279.387 838.721 277.771 838.721 276.658 839.648L277.938 841.184ZM249.366 861.795C250.478 862.722 252.095 862.722 253.207 861.795L251.927 860.258C251.556 860.567 251.017 860.567 250.646 860.258L249.366 861.795ZM223.354 841.184C223.725 840.875 224.264 840.875 224.635 841.184L225.915 839.648C224.802 838.721 223.186 838.721 222.074 839.648L223.354 841.184ZM194.782 861.795C195.894 862.722 197.51 862.722 198.623 861.795L197.342 860.258C196.972 860.567 196.433 860.567 196.062 860.258L194.782 861.795ZM168.77 841.184C169.141 840.875 169.68 840.875 170.05 841.184L171.331 839.648C170.218 838.721 168.602 838.721 167.49 839.648L168.77 841.184ZM140.198 861.794C141.31 862.722 142.926 862.722 144.039 861.794L142.758 860.258C142.388 860.567 141.849 860.567 141.478 860.258L140.198 861.794ZM113.826 838.412C113.826 839.303 114.222 840.147 114.906 840.717L116.186 839.181C115.958 838.991 115.826 838.709 115.826 838.412L113.826 838.412ZM986.173 21.9899C986.726 21.9899 987.173 22.4376 987.173 22.9899L989.173 22.9899C989.173 21.333 987.83 19.9899 986.173 19.9899V21.9899ZM116.826 19.9899C115.169 19.9899 113.826 21.333 113.826 22.9899L115.826 22.9899C115.826 22.4376 116.274 21.9899 116.826 21.9899V19.9899Z" fill="#EBEBEC" mask="url(#path-3-inside-1_0_459)"/>
</g>
<rect x="114.826" y="20.9899" width="873.347" height="7.88233" fill="url(#paint1_linear_0_459)"/>
<rect x="106.19" y="17.9846" width="895.726" height="3.00528" fill="#85858B"/>
<g filter="url(#filter1_f_0_459)">
<path d="M988.174 28.9809H1087V900H1056.77L988.174 28.9809Z" fill="white"/>
</g>
<g filter="url(#filter2_f_0_459)">
<path d="M114.826 28.9809H16V900H46.2307L114.826 28.9809Z" fill="white"/>
</g>
<path d="M400.86 146.468C393.192 146.468 387.684 140.708 387.684 133.4C387.684 126.092 393.192 120.332 400.86 120.332C405.468 120.332 409.572 122.672 411.696 126.344L408.096 128.432C406.764 125.948 404.028 124.364 400.86 124.364C395.424 124.364 391.824 128.216 391.824 133.4C391.824 138.584 395.424 142.436 400.86 142.436C404.028 142.436 406.8 140.852 408.096 138.368L411.696 140.42C409.608 144.092 405.504 146.468 400.86 146.468ZM428.811 128V131.744H422.943V146H419.055V131.744H413.151V128H428.811ZM439.235 146.468C433.979 146.468 429.731 142.328 429.731 137C429.731 131.636 433.979 127.532 439.235 127.532C444.527 127.532 448.739 131.636 448.739 137C448.739 142.328 444.527 146.468 439.235 146.468ZM439.235 142.688C442.403 142.688 444.851 140.276 444.851 137C444.851 133.724 442.403 131.312 439.235 131.312C436.067 131.312 433.619 133.724 433.619 137C433.619 140.276 436.067 142.688 439.235 142.688ZM465.286 128H468.274V146H464.458V134.552L455.242 146H452.254V128H456.07V139.412L465.286 128ZM491.146 128V146H487.366V134.156L482.182 142.4H481.714L476.566 134.192V146H472.786V128H476.746L481.966 136.316L487.186 128H491.146ZM504.133 146.468C498.877 146.468 494.629 142.328 494.629 137C494.629 131.636 498.877 127.532 504.133 127.532C509.425 127.532 513.637 131.636 513.637 137C513.637 142.328 509.425 146.468 504.133 146.468ZM504.133 142.688C507.301 142.688 509.749 140.276 509.749 137C509.749 133.724 507.301 131.312 504.133 131.312C500.965 131.312 498.517 133.724 498.517 137C498.517 140.276 500.965 142.688 504.133 142.688ZM525.649 146.468C520.213 146.468 516.145 142.328 516.145 137C516.145 131.636 520.213 127.532 525.649 127.532C529.177 127.532 532.237 129.368 533.677 132.176L530.329 134.12C529.537 132.428 527.773 131.348 525.613 131.348C522.445 131.348 520.033 133.76 520.033 137C520.033 140.24 522.445 142.652 525.613 142.652C527.773 142.652 529.537 141.536 530.401 139.88L533.749 141.788C532.237 144.632 529.177 146.468 525.649 146.468ZM550.135 128V131.744H544.267V146H540.379V131.744H534.475V128H550.135ZM560.614 134.12C564.43 134.12 567.166 136.496 567.166 140.06C567.166 143.588 564.43 146 560.614 146H552.766V128H556.654V134.12H560.614ZM560.65 142.508C562.162 142.508 563.35 141.536 563.35 140.06C563.35 138.548 562.162 137.612 560.65 137.612H556.654V142.508H560.65ZM595.364 128V146H591.476V131.672H583.232V146H579.344V128H595.364ZM608.371 146.468C603.115 146.468 598.867 142.328 598.867 137C598.867 131.636 603.115 127.532 608.371 127.532C613.663 127.532 617.875 131.636 617.875 137C617.875 142.328 613.663 146.468 608.371 146.468ZM608.371 142.688C611.539 142.688 613.987 140.276 613.987 137C613.987 133.724 611.539 131.312 608.371 131.312C605.203 131.312 602.755 133.724 602.755 137C602.755 140.276 605.203 142.688 608.371 142.688ZM637.303 146H632.659L625.279 137.684V146H621.391V128H625.279V135.956L632.263 128H637.015L629.095 136.82L637.303 146ZM651.699 128H655.839L648.927 146.576C647.235 151.148 644.103 153.452 640.143 153.2V149.564C642.663 149.708 644.031 148.52 644.931 146.108L645.039 145.856L637.479 128H641.619L647.091 141.104L651.699 128ZM674.29 128V146H670.402V131.672H662.158V146H658.27V128H674.29ZM687.297 146.468C682.041 146.468 677.793 142.328 677.793 137C677.793 131.636 682.041 127.532 687.297 127.532C692.589 127.532 696.801 131.636 696.801 137C696.801 142.328 692.589 146.468 687.297 146.468ZM687.297 142.688C690.465 142.688 692.913 140.276 692.913 137C692.913 133.724 690.465 131.312 687.297 131.312C684.129 131.312 681.681 133.724 681.681 137C681.681 140.276 684.129 142.688 687.297 142.688ZM716.229 146H711.585L704.205 137.684V146H700.317V128H704.205V135.956L711.189 128H715.941L708.021 136.82L716.229 146Z" fill="#A0A0A0"/>
<path d="M442.216 234.144C448.664 237.992 452.304 244.336 452.304 251.72C452.304 265.136 442.32 273.456 426.2 273.456C409.976 273.456 400.096 265.136 400.096 251.72C400.096 244.336 403.736 237.992 410.08 234.144C405.504 230.816 402.488 225.824 402.488 219.064C402.488 205.024 413.408 197.744 426.2 197.744C438.992 197.744 449.808 205.024 449.808 219.064C449.808 225.824 446.896 230.816 442.216 234.144ZM426.2 211.264C420.792 211.264 416.84 214.384 416.84 219.792C416.84 225.096 420.792 228.424 426.2 228.424C431.608 228.424 435.56 225.096 435.56 219.792C435.56 214.384 431.608 211.264 426.2 211.264ZM426.2 259.936C433.064 259.936 438.056 256.4 438.056 249.848C438.056 243.4 433.064 239.864 426.2 239.864C419.336 239.864 414.344 243.4 414.344 249.848C414.344 256.4 419.336 259.936 426.2 259.936ZM457.566 272V261.288L482.422 235.704C487.102 230.816 490.742 226.032 490.742 221.144C490.742 215.32 486.79 211.68 481.278 211.68C475.662 211.68 471.502 215.008 469.11 220.208L457.046 213.136C461.726 202.736 471.19 197.744 481.07 197.744C493.55 197.744 505.094 206.064 505.094 220.624C505.094 229.464 499.998 237.056 493.134 243.92L478.886 258.168H506.238V272H457.566ZM541.752 273.456C523.24 273.456 512.632 258.064 512.632 235.6C512.632 213.136 523.24 197.744 541.752 197.744C560.368 197.744 570.872 213.136 570.872 235.6C570.872 258.064 560.368 273.456 541.752 273.456ZM541.752 259.416C551.528 259.416 556.624 250.992 556.624 235.6C556.624 220.208 551.528 211.68 541.752 211.68C531.976 211.68 526.984 220.208 526.984 235.6C526.984 250.992 531.976 259.416 541.752 259.416Z" fill="#34343E"/>
<path d="M588.136 264.272L583.936 279.84H578.056L580.296 264.272H588.136ZM616.641 245.624C616.641 248.648 615.801 251.392 614.289 253.576H614.345L602.137 272H593.289L602.025 259.232C593.905 259.064 588.249 253.52 588.249 245.624C588.249 237.616 594.073 232.016 602.417 232.016C610.873 232.016 616.641 237.616 616.641 245.624ZM595.921 245.624C595.921 249.6 598.833 252.008 602.417 252.008C606.113 252.008 608.969 249.6 608.969 245.624C608.969 241.648 606.113 239.296 602.417 239.296C598.833 239.296 595.921 241.704 595.921 245.624ZM632.5 247.08C639.668 247.08 645.884 251.504 645.884 259.904C645.884 268.304 639.276 272.784 631.884 272.784C625.78 272.784 620.46 270.096 618.22 264.384L624.828 260.52C625.78 263.544 627.964 265.224 631.884 265.224C635.916 265.224 638.156 263.096 638.156 259.904C638.156 256.768 635.916 254.584 632.108 254.584H620.236L621.804 232.8H644.036V240.024H628.972L628.468 247.08H632.5Z" fill="#34343E"/>
<path d="M692.335 246.728H679.439V252.448H702.631V261.6H679.439V272H665.191V261.6H657.391V252.448H665.191V246.728H657.391V234.144H665.191V199.2H692.335C706.063 199.2 716.879 210.016 716.879 223.328C716.879 236.744 706.063 246.728 692.335 246.728ZM679.439 212.616V234.144H692.335C698.159 234.144 702.631 229.36 702.631 223.328C702.631 217.296 698.159 212.616 692.335 212.616H679.439Z" fill="#34343E"/>
<path d="M429.686 347.8V387H423.246V353.96H407.286V387H400.846V347.8H429.686ZM452.997 358.272C460.613 358.272 466.941 364.712 466.941 373C466.941 381.344 460.613 387.728 452.997 387.728C448.629 387.728 445.325 385.936 443.197 383.024V398.2H437.149V359H443.197V363.032C445.325 360.064 448.629 358.272 452.997 358.272ZM452.045 381.96C457.085 381.96 460.893 378.208 460.893 373C460.893 367.792 457.085 364.04 452.045 364.04C447.005 364.04 443.197 367.792 443.197 373C443.197 378.208 447.005 381.96 452.045 381.96ZM492.695 359H497.343V387H491.407V369.192L477.071 387H472.423V359H478.359V376.752L492.695 359ZM527.992 359V387H521.944V364.824H512.592V375.24C512.592 384.424 508.28 387.672 501.392 387V381.344C504.696 381.904 506.544 380.224 506.544 374.96V359H527.992ZM548.256 387.728C540.08 387.728 533.472 381.288 533.472 373C533.472 364.656 540.08 358.272 548.256 358.272C556.488 358.272 563.04 364.656 563.04 373C563.04 381.288 556.488 387.728 548.256 387.728ZM548.256 381.848C553.184 381.848 556.992 378.096 556.992 373C556.992 367.904 553.184 364.152 548.256 364.152C543.328 364.152 539.52 367.904 539.52 373C539.52 378.096 543.328 381.848 548.256 381.848ZM602.33 387H595.442L585.922 374.064V387H579.986V374.176L570.466 387H563.578L574.498 372.72L564.138 359H571.026L579.986 371.264V359H585.922V371.32L594.882 359H601.77L591.41 372.72L602.33 387ZM626.952 359H631.6V387H625.664V369.192L611.328 387H606.68V359H612.616V376.752L626.952 359ZM660.01 359V364.824H650.882V387H644.834V364.824H635.65V359H660.01ZM667.768 375.576C668.72 379.944 672.248 382.184 676.728 382.184C680.088 382.184 682.608 380.672 683.952 378.712L688.936 381.624C686.36 385.432 682.16 387.728 676.672 387.728C667.432 387.728 661.44 381.4 661.44 373C661.44 364.712 667.432 358.272 676.224 358.272C684.568 358.272 690.28 364.992 690.28 373.056C690.28 373.896 690.168 374.792 690.056 375.576H667.768ZM667.712 370.648H684.176C683.336 365.832 679.808 363.76 676.168 363.76C671.632 363.76 668.552 366.448 667.712 370.648ZM283.023 423H287.671V451H281.735V433.192L267.399 451H262.751V423H268.687V440.752L283.023 423ZM318.32 423V451H312.272V428.824H302.92V439.24C302.92 448.424 298.608 451.672 291.72 451V445.344C295.024 445.904 296.872 444.224 296.872 438.96V423H318.32ZM345.64 423H350.288V451H344.352V433.192L330.016 451H325.368V423H331.304V440.752L345.64 423ZM396.225 423V451H390.177V428.712H377.353V451H371.305V423H396.225ZM419.091 422.272C426.707 422.272 433.035 428.712 433.035 437C433.035 445.344 426.707 451.728 419.091 451.728C414.723 451.728 411.419 449.936 409.291 447.024V462.2H403.243V423H409.291V427.032C411.419 424.064 414.723 422.272 419.091 422.272ZM418.139 445.96C423.179 445.96 426.987 442.208 426.987 437C426.987 431.792 423.179 428.04 418.139 428.04C413.099 428.04 409.291 431.792 409.291 437C409.291 442.208 413.099 445.96 418.139 445.96ZM451.732 451.728C443.556 451.728 436.948 445.288 436.948 437C436.948 428.656 443.556 422.272 451.732 422.272C459.964 422.272 466.516 428.656 466.516 437C466.516 445.288 459.964 451.728 451.732 451.728ZM451.732 445.848C456.66 445.848 460.468 442.096 460.468 437C460.468 431.904 456.66 428.152 451.732 428.152C446.804 428.152 442.996 431.904 442.996 437C442.996 442.096 446.804 445.848 451.732 445.848ZM496.737 451H489.513L478.033 438.064V451H471.985V423H478.033V435.376L488.897 423H496.289L483.969 436.72L496.737 451ZM520.739 423H526.787V451H520.739V446.968C518.611 449.936 515.307 451.728 510.939 451.728C503.323 451.728 496.995 445.288 496.995 437C496.995 428.656 503.323 422.272 510.939 422.272C515.307 422.272 518.611 424.064 520.739 426.976V423ZM511.891 445.96C516.931 445.96 520.739 442.208 520.739 437C520.739 431.792 516.931 428.04 511.891 428.04C506.851 428.04 503.043 431.792 503.043 437C503.043 442.208 506.851 445.96 511.891 445.96ZM555.229 423V428.824H546.101V451H540.053V428.824H530.869V423H555.229ZM580.403 423H586.451V451H580.403V446.968C578.275 449.936 574.971 451.728 570.603 451.728C562.987 451.728 556.659 445.288 556.659 437C556.659 428.656 562.987 422.272 570.603 422.272C574.971 422.272 578.275 424.064 580.403 426.976V423ZM571.555 445.96C576.595 445.96 580.403 442.208 580.403 437C580.403 431.792 576.595 428.04 571.555 428.04C566.515 428.04 562.707 431.792 562.707 437C562.707 442.208 566.515 445.96 571.555 445.96ZM598.093 419.08V413.816H613.773V419.08H598.093ZM613.773 423H618.421V451H612.485V433.192L598.149 451H593.501V423H599.437V440.752L613.773 423ZM646.83 423V428.824H637.702V451H631.654V428.824H622.47V423H646.83ZM654.589 439.576C655.541 443.944 659.069 446.184 663.549 446.184C666.909 446.184 669.429 444.672 670.773 442.712L675.757 445.624C673.181 449.432 668.981 451.728 663.493 451.728C654.253 451.728 648.261 445.4 648.261 437C648.261 428.712 654.253 422.272 663.045 422.272C671.389 422.272 677.101 428.992 677.101 437.056C677.101 437.896 676.989 438.792 676.877 439.576H654.589ZM654.533 434.648H670.997C670.157 429.832 666.629 427.76 662.989 427.76C658.453 427.76 655.373 430.448 654.533 434.648ZM721.175 451H713.951L702.471 438.064V451H696.423V423H702.471V435.376L713.335 423H720.727L708.407 436.72L721.175 451ZM745.177 423H751.225V451H745.177V446.968C743.049 449.936 739.745 451.728 735.377 451.728C727.761 451.728 721.433 445.288 721.433 437C721.433 428.656 727.761 422.272 735.377 422.272C739.745 422.272 743.049 424.064 745.177 426.976V423ZM736.329 445.96C741.369 445.96 745.177 442.208 745.177 437C745.177 431.792 741.369 428.04 736.329 428.04C731.289 428.04 727.481 431.792 727.481 437C727.481 442.208 731.289 445.96 736.329 445.96ZM774.122 422.272C781.738 422.272 788.066 428.712 788.066 437C788.066 445.344 781.738 451.728 774.122 451.728C769.754 451.728 766.45 449.936 764.322 447.024V462.2H758.274V423H764.322V427.032C766.45 424.064 769.754 422.272 774.122 422.272ZM773.17 445.96C778.21 445.96 782.018 442.208 782.018 437C782.018 431.792 778.21 428.04 773.17 428.04C768.13 428.04 764.322 431.792 764.322 437C764.322 442.208 768.13 445.96 773.17 445.96ZM813.846 423V428.824H804.718V451H798.67V428.824H789.486V423H813.846ZM837.084 423H843.524L832.772 451.896C830.14 459.008 825.268 462.592 819.108 462.2V456.544C823.028 456.768 825.156 454.92 826.556 451.168L826.724 450.776L814.964 423H821.404L829.916 443.384L837.084 423Z" fill="#00923A"/>
<defs>
<filter id="filter0_dd_0_459" x="84.8262" y="0.989868" width="933.347" height="900.5" filterUnits="userSpaceOnUse" color-interpolation-filters="sRGB">
<feFlood flood-opacity="0" result="BackgroundImageFix"/>
<feColorMatrix in="SourceAlpha" type="matrix" values="0 0 0 0 0 0 0 0 0 0 0 0 0 0 0 0 0 0 127 0" result="hardAlpha"/>
<feOffset dy="10"/>
<feGaussianBlur stdDeviation="15"/>
<feColorMatrix type="matrix" values="0 0 0 0 0.203922 0 0 0 0 0.203922 0 0 0 0 0.243137 0 0 0 0.15 0"/>
<feBlend mode="normal" in2="BackgroundImageFix" result="effect1_dropShadow_0_459"/>
<feColorMatrix in="SourceAlpha" type="matrix" values="0 0 0 0 0 0 0 0 0 0 0 0 0 0 0 0 0 0 127 0" result="hardAlpha"/>
<feOffset dy="4"/>
<feGaussianBlur stdDeviation="5"/>
<feColorMatrix type="matrix" values="0 0 0 0 0.203922 0 0 0 0 0.203922 0 0 0 0 0.243137 0 0 0 0.3 0"/>
<feBlend mode="normal" in2="effect1_dropShadow_0_459" result="effect2_dropShadow_0_459"/>
<feBlend mode="normal" in="SourceGraphic" in2="effect2_dropShadow_0_459" result="shape"/>
</filter>
<filter id="filter1_f_0_459" x="972.174" y="12.9809" width="130.826" height="903.019" filterUnits="userSpaceOnUse" color-interpolation-filters="sRGB">
<feFlood flood-opacity="0" result="BackgroundImageFix"/>
<feBlend mode="normal" in="SourceGraphic" in2="BackgroundImageFix" result="shape"/>
<feGaussianBlur stdDeviation="8" result="effect1_foregroundBlur_0_459"/>
</filter>
<filter id="filter2_f_0_459" x="0" y="12.9809" width="130.826" height="903.019" filterUnits="userSpaceOnUse" color-interpolation-filters="sRGB">
<feFlood flood-opacity="0" result="BackgroundImageFix"/>
<feBlend mode="normal" in="SourceGraphic" in2="BackgroundImageFix" result="shape"/>
<feGaussianBlur stdDeviation="8" result="effect1_foregroundBlur_0_459"/>
</filter>
<linearGradient id="paint0_linear_0_459" x1="678.622" y1="20.9899" x2="678.622" y2="928.323" gradientUnits="userSpaceOnUse">
<stop stop-color="#E8E8E8"/>
<stop offset="0.0760776" stop-color="white"/>
<stop offset="0.497673" stop-color="white"/>
<stop offset="0.862458" stop-color="#E8E8E8"/>
</linearGradient>
<linearGradient id="paint1_linear_0_459" x1="551.5" y1="20.9899" x2="551.5" y2="26.7855" gradientUnits="userSpaceOnUse">
<stop offset="0.197917" stop-color="#D6D6D8"/>
<stop offset="0.71875" stop-color="#C2C2C5" stop-opacity="0"/>
</linearGradient>
</defs>
</svg>
